<?xml version="1.0" encoding="utf-8"?>
<!-- Generator: Adobe Illustrator 16.0.0, SVG Export Plug-In . SVG Version: 6.00 Build 0)  -->
<!DOCTYPE svg PUBLIC "-//W3C//DTD SVG 1.1//EN" "http://www.w3.org/Graphics/SVG/1.1/DTD/svg11.dtd">
<svg version="1.1" id="Layer_1" xmlns="http://www.w3.org/2000/svg" xmlns:xlink="http://www.w3.org/1999/xlink" x="0px" y="0px"
	 width="69.5px" height="69.5px" viewBox="0 0 69.5 69.5" enable-background="new 0 0 69.5 69.5" xml:space="preserve">
<g>
	<path fill="#26266C" d="M59.408,61.641h-2.577c0.069-0.055,0.165-0.082,0.224-0.148c0.352-0.393,0.531-0.867,0.531-1.426
		c0-0.557-0.18-1.029-0.531-1.422c-0.355-0.395-0.885-0.59-1.593-0.59h-2.967v-46.61h2.967c0.708,0,1.237-0.194,1.593-0.588
		c0.352-0.395,0.531-0.867,0.531-1.424c0-0.558-0.18-1.032-0.531-1.425C56.996,7.943,56.9,7.915,56.831,7.86h2.577
		c0.842,0,1.471-0.223,1.895-0.676c0.42-0.451,0.633-0.994,0.633-1.633c0-0.643-0.213-1.187-0.633-1.637
		c-0.424-0.45-1.053-0.678-1.895-0.678H10.167c-0.793,0-1.423,0.228-1.896,0.678S7.564,4.909,7.564,5.551
		c0,0.609,0.234,1.146,0.707,1.612C8.744,7.628,9.374,7.86,10.167,7.86h2.575c-0.075,0.055-0.168,0.083-0.234,0.148
		c-0.397,0.393-0.594,0.867-0.594,1.425c0,0.53,0.196,1,0.594,1.404c0.396,0.406,0.926,0.607,1.594,0.607h2.903v46.61h-2.903
		c-0.668,0-1.197,0.203-1.594,0.607s-0.594,0.875-0.594,1.404c0,0.559,0.197,1.033,0.594,1.426c0.066,0.066,0.159,0.094,0.234,0.148
		h-2.574c-0.794,0-1.424,0.23-1.896,0.697c-0.473,0.465-0.707,1.002-0.707,1.611c0,0.643,0.234,1.188,0.707,1.637
		s1.103,0.678,1.896,0.678h49.24c0.842,0,1.471-0.229,1.895-0.678c0.42-0.449,0.633-0.994,0.633-1.637
		c0-0.639-0.213-1.182-0.633-1.633C60.879,61.863,60.25,61.641,59.408,61.641z M27.652,52.38c0,0.565-0.253,1.014-0.755,1.352
		c-0.504,0.335-1.113,0.503-1.826,0.503c-0.683,0-1.284-0.168-1.803-0.503c-0.519-0.338-0.778-0.786-0.778-1.352V17.319
		c0-0.601,0.251-1.051,0.754-1.351c0.504-0.299,1.112-0.449,1.827-0.449c0.713,0,1.322,0.15,1.826,0.449
		c0.502,0.3,0.755,0.75,0.755,1.351V52.38z M37.332,53.256c0,0.595-0.256,1.063-0.757,1.419c-0.504,0.35-1.113,0.528-1.825,0.528
		c-0.681,0-1.283-0.178-1.802-0.528c-0.521-0.355-0.78-0.824-0.78-1.419V16.44c0-0.629,0.25-1.103,0.754-1.417
		c0.505-0.313,1.113-0.473,1.828-0.473c0.712,0,1.321,0.159,1.825,0.473c0.501,0.314,0.757,0.788,0.757,1.417V53.256z M47.012,52.38
		c0,0.565-0.256,1.014-0.757,1.352c-0.504,0.335-1.113,0.503-1.825,0.503c-0.681,0-1.283-0.168-1.802-0.503
		c-0.521-0.338-0.78-0.786-0.78-1.352V17.319c0-0.601,0.25-1.051,0.755-1.351c0.504-0.299,1.113-0.449,1.827-0.449
		c0.712,0,1.321,0.15,1.825,0.449c0.501,0.3,0.757,0.75,0.757,1.351V52.38z"/>
</g>
<g>
</g>
<g>
</g>
<g>
</g>
<g>
</g>
<g>
</g>
<g>
</g>
</svg>
