<?xml version="1.0" encoding="utf-8"?>
<!-- Generator: Adobe Illustrator 16.0.0, SVG Export Plug-In . SVG Version: 6.00 Build 0)  -->
<!DOCTYPE svg PUBLIC "-//W3C//DTD SVG 1.1//EN" "http://www.w3.org/Graphics/SVG/1.1/DTD/svg11.dtd">
<svg version="1.1" id="Layer_1" xmlns="http://www.w3.org/2000/svg" xmlns:xlink="http://www.w3.org/1999/xlink" x="0px" y="0px"
	 width="154.604px" height="68.679px" viewBox="0 0 154.604 68.679" enable-background="new 0 0 154.604 68.679"
	 xml:space="preserve">
<g>
	<path d="M63.932,49.92V22.438c0-0.47,0.214-0.823,0.644-1.059c0.429-0.235,0.948-0.353,1.557-0.353
		c0.608,0,1.127,0.118,1.557,0.353c0.429,0.236,0.644,0.588,0.644,1.059V49.92c0,0.443-0.215,0.795-0.644,1.059
		c-0.429,0.264-0.948,0.395-1.557,0.395c-0.581,0-1.094-0.131-1.536-0.395C64.153,50.715,63.932,50.363,63.932,49.92z"/>
	<path d="M72.898,43.527V33.149c0-0.387,0.222-0.727,0.664-1.017s0.955-0.436,1.536-0.436s1.086,0.146,1.516,0.435
		c0.428,0.29,0.643,0.628,0.643,1.014v10.351c0,1.105,0.422,2.098,1.267,2.982c0.844,0.883,1.833,1.324,2.968,1.324
		c1.162,0,2.158-0.436,2.989-1.305c0.83-0.869,1.245-1.869,1.245-3.002V33.104c0-0.386,0.214-0.717,0.644-0.993
		c0.429-0.276,0.948-0.415,1.557-0.415s1.114,0.139,1.515,0.415c0.401,0.277,0.603,0.609,0.603,0.997v10.42
		c0,2.186-0.845,4.096-2.532,5.729c-1.688,1.633-3.695,2.449-6.02,2.449s-4.338-0.816-6.04-2.449S72.898,45.713,72.898,43.527z"/>
	<path d="M94.817,49.92V21.401c0-0.415,0.2-0.754,0.602-1.017c0.4-0.263,0.92-0.395,1.557-0.395c0.608,0,1.127,0.132,1.557,0.395
		c0.429,0.263,0.644,0.602,0.644,1.017V49.92c0,0.359-0.222,0.691-0.664,0.996c-0.443,0.305-0.955,0.457-1.536,0.457
		c-0.609,0-1.121-0.152-1.536-0.457S94.817,50.279,94.817,49.92z"/>
	<path d="M103.741,24.473c0-0.636,0.249-1.176,0.747-1.619c0.498-0.442,1.093-0.664,1.785-0.664c0.691,0,1.286,0.222,1.785,0.664
		c0.498,0.443,0.747,0.983,0.747,1.619c0,0.609-0.249,1.142-0.747,1.598c-0.499,0.457-1.094,0.685-1.785,0.685
		c-0.692,0-1.287-0.229-1.785-0.685S103.741,25.082,103.741,24.473z M104.114,49.92V33.107c0-0.416,0.201-0.754,0.603-1.017
		c0.401-0.263,0.919-0.395,1.557-0.395c0.636,0,1.162,0.132,1.577,0.395c0.416,0.263,0.623,0.602,0.623,1.017V49.92
		c0,0.359-0.215,0.691-0.644,0.996s-0.948,0.457-1.557,0.457c-0.609,0-1.121-0.152-1.536-0.457S104.114,50.279,104.114,49.92z"/>
	<path d="M112.874,43.527V33.149c0-0.387,0.221-0.727,0.664-1.017c0.441-0.291,0.955-0.436,1.535-0.436
		c0.582,0,1.086,0.146,1.516,0.435c0.428,0.29,0.643,0.628,0.643,1.014v10.351c0,1.105,0.422,2.098,1.268,2.982
		c0.844,0.883,1.832,1.324,2.967,1.324c1.162,0,2.16-0.436,2.99-1.305s1.244-1.869,1.244-3.002V33.104
		c0-0.386,0.215-0.717,0.645-0.993c0.428-0.276,0.947-0.415,1.557-0.415c0.607,0,1.113,0.139,1.516,0.415
		c0.4,0.277,0.602,0.609,0.602,0.997v10.42c0,2.186-0.846,4.096-2.533,5.729s-3.693,2.449-6.02,2.449
		c-2.324,0-4.338-0.816-6.039-2.449C113.724,47.623,112.874,45.713,112.874,43.527z"/>
	<path d="M133.173,48.383c0-0.414,0.146-0.844,0.439-1.285c0.293-0.443,0.648-0.666,1.066-0.666c0.252,0,0.6,0.164,1.047,0.488
		c0.445,0.326,1.045,0.65,1.799,0.977c0.752,0.324,1.66,0.486,2.719,0.486c2.371,0,3.557-0.75,3.557-2.254
		c0-0.809-0.346-1.441-1.037-1.9c-0.693-0.459-1.529-0.822-2.512-1.086c-0.982-0.266-1.959-0.564-2.926-0.898
		c-0.971-0.334-1.801-0.904-2.492-1.713c-0.691-0.807-1.037-1.852-1.037-3.132c0-1.625,0.58-3.023,1.744-4.195
		c1.162-1.171,2.947-1.757,5.354-1.757c1.578,0,3.01,0.243,4.297,0.727c1.287,0.484,1.932,1.059,1.932,1.723
		c0,0.388-0.16,0.838-0.479,1.35s-0.713,0.768-1.184,0.768c-0.166,0-0.732-0.208-1.701-0.623s-1.896-0.623-2.781-0.623
		c-1.107,0-1.945,0.252-2.512,0.752c-0.568,0.502-0.852,1.059-0.852,1.671c0,0.669,0.346,1.197,1.039,1.587
		c0.691,0.391,1.535,0.711,2.531,0.961s1.977,0.557,2.943,0.918s1.789,0.988,2.471,1.881c0.68,0.891,1.021,2.031,1.021,3.424
		c0,1.791-0.639,3.195-1.91,4.215c-1.273,1.02-3.072,1.529-5.396,1.529c-1.965,0-3.646-0.346-5.045-1.039
		C133.872,49.975,133.173,49.215,133.173,48.383z"/>
</g>
<g>
	<polygon fill="#28276D" points="6.915,1.748 26.201,21.035 51.086,20.985 51.086,1.748 	"/>
	<polygon fill="#323996" points="51.086,45.921 31.85,26.633 31.85,1.748 51.086,1.748 	"/>
	<polygon fill="#2D318B" points="51.086,20.985 31.85,21.035 31.85,1.748 51.086,1.748 	"/>
	<polygon fill="#323996" points="31.825,36.654 51.111,55.941 51.111,66.521 31.825,66.521 	"/>
	<polygon fill="#2D318B" points="51.111,66.931 51.111,56.771 31.825,56.771 31.825,66.521 51.111,66.521 	"/>
	<polygon fill="#3A459C" points="61.685,66.521 51.902,56.77 31.825,56.819 31.825,66.521 	"/>
	<polygon fill="#2D318B" points="40.912,56.77 51.071,56.77 51.111,66.521 31.825,66.521 31.825,56.819 	"/>
</g>
<g>
</g>
<g>
</g>
<g>
</g>
<g>
</g>
<g>
</g>
<g>
</g>
</svg>
